<?xml version="1.0" standalone="no"?>
<!DOCTYPE svg PUBLIC "-//W3C//DTD SVG 20010904//EN"
 "http://www.w3.org/TR/2001/REC-SVG-20010904/DTD/svg10.dtd">
<svg version="1.0" xmlns="http://www.w3.org/2000/svg"
 width="50.000000pt" height="50.000000pt" viewBox="0 0 50.000000 50.000000"
 preserveAspectRatio="xMidYMid meet">

<g transform="translate(0.000000,50.000000) scale(0.100000,-0.100000)"
fill="#FEC63E" stroke="none">
<path d="M0 310 c0 -100 4 -160 10 -160 6 0 10 57 10 150 l0 150 215 0 c137 0
215 4 215 10 0 6 -82 10 -225 10 l-225 0 0 -160z"/>
<path d="M40 417 c0 -21 196 -187 220 -187 25 0 220 166 220 187 0 10 -43 13
-220 13 -177 0 -220 -3 -220 -13z"/>
<path d="M40 271 l0 -111 65 51 c36 28 65 52 65 54 0 1 -29 28 -65 60 l-65 57
0 -111z"/>
<path d="M380 295 c-102 -91 -131 -102 -165 -65 -10 12 -25 18 -32 16 -27 -11
-143 -110 -143 -123 0 -10 28 -13 125 -13 118 0 125 1 125 20 0 17 7 20 50 20
46 0 49 1 39 19 -15 23 -5 51 18 51 9 0 32 -14 50 -32 l33 -32 0 112 c0 62 -1
112 -2 111 -2 0 -46 -38 -98 -84z"/>
<path d="M390 193 c0 -4 12 -20 27 -35 l27 -28 -67 0 c-38 0 -67 -4 -67 -10 0
-6 29 -10 67 -10 l67 0 -29 -30 c-45 -47 -19 -49 28 -2 l41 42 -39 40 c-37 38
-55 49 -55 33z"/>
</g>
</svg>
