<svg version="1.0" xmlns="http://www.w3.org/2000/svg" width="50pt" height="50pt" viewBox="0 0 50 50"><g transform="translate(0.000000,50.000000) scale(0.100000,-0.100000)" fill="#fec63e" stroke="none"><path d="M0 310c0-1e2 4-160 10-160 6 0 10 57 10 150v150h215c137 0 215 4 215 10 0 6-82 10-225 10H0V310z"/><path d="M40 417c0-21 196-187 220-187 25 0 220 166 220 187 0 10-43 13-220 13-177 0-220-3-220-13z"/><path d="M40 271V160l65 51c36 28 65 52 65 54 0 1-29 28-65 60l-65 57V271z"/><path d="M380 295c-102-91-131-102-165-65-10 12-25 18-32 16-27-11-143-110-143-123 0-10 28-13 125-13 118 0 125 1 125 20 0 17 7 20 50 20 46 0 49 1 39 19-15 23-5 51 18 51 9 0 32-14 50-32l33-32v112c0 62-1 112-2 111-2 0-46-38-98-84z"/><path d="M390 193c0-4 12-20 27-35l27-28h-67c-38 0-67-4-67-10 0-6 29-10 67-10h67l-29-30c-45-47-19-49 28-2l41 42-39 40c-37 38-55 49-55 33z"/></g></svg>