<svg version="1.0" xmlns="http://www.w3.org/2000/svg" width="50pt" height="50pt" viewBox="0 0 50 50"><g transform="translate(0.000000,50.000000) scale(0.100000,-0.100000)" fill="#fec63e" stroke="none"><path d="M145 454c-94-24-115-40-115-88 0-48 19-60 70-46 32 9 45 18 53 40 12 32 31 40 97 40 66 0 85-8 97-40 8-22 21-31 53-40 51-14 70-2 70 44 0 41-9 52-55 72-40 17-225 29-270 18z"/><path d="M170 332c0-10-14-31-31-48-75-72-99-132-83-213 6-27 10-31 40-31 19 0 34 5 34 10 0 6 47 10 120 10 73 0 120-4 120-10 0-5 15-10 34-10 34 0 35 2 42 46 9 65-8 110-66 176-27 31-50 63-50 72 0 10-9 16-25 16-16 0-25-6-25-15 0-10-10-15-30-15-20 0-30 5-30 15 0 9-9 15-25 15-17 0-25-5-25-18zm40-92c0-5-9-10-20-10-11 0-20 5-20 10 0 6 9 10 20 10 11 0 20-4 20-10zm60 0c0-5-9-10-20-10-11 0-20 5-20 10 0 6 9 10 20 10 11 0 20-4 20-10zm60 0c0-5-9-10-20-10-11 0-20 5-20 10 0 6 9 10 20 10 11 0 20-4 20-10zm-120-40c0-5-9-10-20-10-11 0-20 5-20 10 0 6 9 10 20 10 11 0 20-4 20-10zm60 0c0-5-9-10-20-10-11 0-20 5-20 10 0 6 9 10 20 10 11 0 20-4 20-10zm60 0c0-5-9-10-20-10-11 0-20 5-20 10 0 6 9 10 20 10 11 0 20-4 20-10zm-120-40c0-5-9-10-20-10-11 0-20 5-20 10 0 6 9 10 20 10 11 0 20-4 20-10zm60 0c0-5-9-10-20-10-11 0-20 5-20 10 0 6 9 10 20 10 11 0 20-4 20-10zm60 0c0-5-9-10-20-10-11 0-20 5-20 10 0 6 9 10 20 10 11 0 20-4 20-10z"/></g></svg>