<?xml version="1.0" standalone="no"?>
<!DOCTYPE svg PUBLIC "-//W3C//DTD SVG 20010904//EN"
 "http://www.w3.org/TR/2001/REC-SVG-20010904/DTD/svg10.dtd">
<svg version="1.0" xmlns="http://www.w3.org/2000/svg"
 width="629.000000pt" height="349.000000pt" viewBox="0 0 629.000000 349.000000"
 preserveAspectRatio="xMidYMid meet">

<g transform="translate(0.000000,349.000000) scale(0.100000,-0.100000)"
fill="#000000" stroke="none">
<path d="M2779 3415 c0 -11 -2 -138 -2 -282 -2 -217 0 -263 12 -263 11 0 13
39 10 227 l-4 227 47 15 c40 12 56 12 102 1 35 -8 73 -10 108 -5 66 9 117 9
190 0 38 -5 72 -3 102 6 38 11 43 15 35 31 -6 12 -6 25 1 38 13 24 8 24 -56 5
-44 -13 -56 -13 -117 2 -63 15 -72 15 -127 0 -54 -16 -64 -16 -122 -1 -51 13
-72 14 -112 5 -39 -9 -51 -9 -58 1 -5 9 -8 7 -9 -7z"/>
<path d="M2390 3170 c-19 -19 -26 -41 -15 -52 3 -3 21 2 40 11 36 17 46 45 19
55 -22 8 -22 8 -44 -14z"/>
<path d="M2462 3103 c-6 -3 -10 -9 -6 -14 7 -11 1 -11 -30 1 -36 13 -36 -16
-1 -32 21 -9 29 -9 41 4 18 18 15 47 -4 41z"/>
<path d="M2328 2988 c-61 -106 -68 -185 -29 -303 26 -76 34 -90 49 -81 6 4 1
41 -15 98 -31 119 -26 159 28 239 33 49 38 63 29 75 -20 24 -37 16 -62 -28z"/>
<path d="M2693 2993 c-93 -43 -116 -41 -225 15 -5 2 -8 -10 -8 -26 0 -26 5
-31 51 -45 66 -22 87 -21 151 3 75 28 112 54 96 67 -9 7 -28 3 -65 -14z"/>
<path d="M3735 2917 c-18 -46 -254 -761 -252 -762 113 -56 151 -80 212 -137
59 -55 81 -85 123 -167 28 -55 54 -116 58 -135 5 -29 11 -36 30 -36 15 0 24 6
24 15 0 8 -6 15 -14 15 -16 0 -31 18 -23 26 3 3 16 1 29 -6 22 -10 22 -10 4 4
-10 8 -23 17 -28 18 -5 2 -6 11 -3 21 5 12 14 15 34 10 14 -3 30 -12 34 -20 4
-7 15 -13 22 -13 18 0 19 -5 3 -29 -10 -17 -8 -23 13 -40 13 -11 29 -20 34
-21 6 0 27 -11 47 -25 l37 -25 302 0 302 0 -7 73 c-17 173 -73 371 -149 522
-131 262 -384 513 -655 649 -115 58 -172 78 -177 63z"/>
<path d="M2944 2646 c-3 -8 26 -164 65 -346 39 -182 71 -337 71 -344 0 -7 -25
-30 -55 -51 -31 -21 -69 -55 -85 -76 -36 -45 -76 -130 -85 -181 l-7 -38 406 0
c329 0 406 2 406 13 0 36 -34 121 -71 176 -68 102 -175 164 -309 178 l-59 6
-41 111 c-174 475 -206 560 -217 564 -7 2 -16 -3 -19 -12z m291 -775 c-5 -2
-14 -10 -18 -17 -6 -11 -11 -10 -25 4 -16 15 -17 19 -3 37 l15 21 20 -21 c12
-11 17 -22 11 -24z m193 -81 c12 -1 10 -4 -7 -14 -13 -7 -30 -24 -37 -37 -10
-19 -13 -20 -14 -6 0 9 -14 26 -31 36 -31 19 -31 19 -8 23 13 1 28 13 34 26
l10 22 18 -25 c10 -14 26 -25 35 -25z"/>
<path d="M2067 2407 c-140 -198 -224 -402 -258 -628 -12 -78 -14 -81 -48 -99
-20 -10 -44 -27 -55 -39 l-19 -21 -33 30 c-59 51 -152 62 -224 25 -41 -21 -88
-80 -100 -126 -15 -54 -5 -107 29 -161 23 -37 308 -318 329 -326 5 -1 83 73
174 165 132 134 168 176 177 208 14 52 13 91 -3 138 l-14 37 293 0 293 0 16
73 c19 85 62 180 111 248 l35 47 -37 30 c-21 16 -170 126 -330 245 l-293 216
-43 -62z"/>
<path d="M913 1840 c6 -178 18 -233 82 -366 47 -98 143 -211 235 -279 46 -33
52 -35 100 -29 28 4 52 10 55 14 4 7 -447 784 -467 805 -7 7 -8 -44 -5 -145z"/>
<path d="M4797 1593 c-16 -40 -41 -153 -35 -158 1 -1 12 -5 24 -9 19 -6 22 0
33 62 18 99 21 101 73 60 75 -61 125 -82 198 -83 80 0 139 26 213 96 l52 48
-257 1 c-165 0 -258 4 -258 10 0 25 -29 6 -43 -27z"/>
<path d="M3831 1514 c-162 -43 -273 -168 -302 -336 -13 -82 0 -176 36 -255 24
-53 101 -146 115 -138 4 2 10 44 13 92 12 154 64 330 135 450 27 45 72 167 72
194 0 11 -3 11 -69 -7z"/>
<path d="M4021 1453 c-6 -38 -14 -79 -17 -93 -7 -25 -7 -25 25 5 32 30 91 111
91 126 0 8 -55 29 -75 29 -7 0 -17 -28 -24 -67z"/>
<path d="M2180 1110 l0 -400 115 0 115 0 0 400 0 400 -115 0 -115 0 0 -400z"/>
<path d="M2550 1110 l0 -400 90 0 89 0 80 -82 81 -83 75 76 c66 67 75 81 75
113 0 69 -83 114 -131 70 -16 -14 -20 -14 -43 1 -18 12 -37 16 -61 12 l-35 -6
0 170 c0 93 3 169 8 169 4 0 49 -65 100 -145 52 -80 97 -145 101 -145 4 0 52
69 107 152 l99 153 3 -228 2 -227 110 0 110 0 0 400 0 401 -121 -3 -122 -3
-91 -147 c-50 -82 -93 -148 -96 -148 -3 0 -46 66 -96 148 l-91 147 -122 3
-121 3 0 -401z"/>
<path d="M4140 1447 c-8 -18 -37 -55 -66 -84 l-52 -52 40 -27 c21 -15 43 -34
47 -42 6 -11 27 0 95 54 l87 68 -43 44 c-24 24 -54 50 -68 57 -24 13 -27 12
-40 -18z"/>
<path d="M521 1427 c84 -158 267 -334 413 -397 62 -26 70 -26 114 10 20 16 62
43 92 59 l54 30 -74 34 c-41 19 -167 78 -280 132 -337 160 -332 158 -319 132z"/>
<path d="M3761 943 c-6 -37 -13 -98 -17 -136 l-6 -67 48 -21 c32 -15 77 -23
136 -27 102 -6 97 -15 70 118 l-18 85 -51 6 c-58 7 -106 37 -133 81 l-18 30
-11 -69z"/>
<path d="M4098 966 c-15 -13 -35 -30 -46 -38 -17 -12 -18 -20 -10 -93 13 -125
14 -128 46 -120 44 11 104 50 155 101 26 27 47 51 47 54 0 6 -155 120 -162
120 -2 0 -15 -11 -30 -24z"/>
</g>
</svg>
